<svg width="32" height="32" viewBox="0 0 32 32" fill="none" xmlns="http://www.w3.org/2000/svg">
<path d="M32 0H0V32H32V0Z" fill="#D71A21"/>
<path fill-rule="evenodd" clip-rule="evenodd" d="M16.3439 7.76598C16.4857 7.89994 16.7842 8.25245 16.6051 8.42871C16.4484 8.57677 16.2021 8.81648 16.2021 8.81648C16.1872 8.73187 15.9559 8.52036 15.9559 8.52036V9.23244C15.9484 9.52151 15.8365 9.59906 15.8365 9.59906C15.8365 9.59906 16.3961 10.1208 16.3961 10.7976V11.4885C16.4036 11.6154 16.3514 11.7494 16.2543 11.8411C16.2021 11.8975 15.6872 12.391 15.6051 12.4544C15.4857 12.5531 15.3365 12.6095 15.1798 12.6025H13.2471C12.9411 12.6025 12.6277 12.3769 12.6277 12.1513C12.6277 12.0949 12.6351 11.4744 12.6351 11.4744L12.6484 11.4889C12.7419 11.5914 12.8474 11.7071 13.0754 11.7071C13.2694 11.7071 13.4635 11.5661 13.5157 11.5097C13.5679 11.4533 14.9783 10.0714 14.9783 10.0714C14.9783 10.0714 14.3216 9.4933 13.8888 9.21834C13.6799 9.08439 13.3963 9.25359 13.3515 9.42985C13.2172 9.97977 13.3515 10.8117 13.3515 10.8117L12.8217 10.3111C12.6053 10.1067 12.6128 9.64841 12.8739 9.4087C12.9113 9.3664 13.3068 8.95748 13.7993 8.95748H14.5679C15.0828 8.95748 15.6499 9.44395 15.6499 9.44395C15.6947 9.3946 15.7245 9.3382 15.732 9.27474C15.732 9.02093 15.7245 8.35116 15.7245 8.35116C15.3365 7.98454 15.2843 7.60382 15.4708 7.42757C15.8215 7.0962 15.9484 6.9834 15.9484 6.9834C15.9484 6.9834 15.9335 7.38527 16.3439 7.76598ZM13.9187 11.4321C13.8896 11.4606 13.8643 11.4858 13.8415 11.5084C13.7124 11.6366 13.668 11.6806 13.5157 11.7705H15.6947C16.2842 11.7705 16.1648 11.4251 16.0603 11.2488C15.8439 10.8893 15.1574 10.2265 15.1574 10.2265C15.1574 10.2265 13.956 11.3969 13.9187 11.4321ZM17.0976 8.79529C17.0976 8.48508 17.2095 8.18192 17.411 7.93516C17.4453 7.90272 17.6036 7.76564 17.7886 7.60533L17.7887 7.60527L17.7887 7.60524C18.0864 7.3474 18.4534 7.02954 18.4856 6.99042L18.7467 6.99747C18.7191 7.02682 18.634 7.0984 18.5402 7.17733C18.4312 7.26905 18.3104 7.3707 18.2542 7.42754C18.0602 7.61789 17.9557 7.87875 17.9632 8.13962V10.7341C17.9632 11.0796 17.8214 11.411 17.5752 11.6648C17.507 11.7468 16.9081 12.2523 16.6604 12.4613L16.6604 12.4614L16.6603 12.4614L16.6598 12.4618L16.6592 12.4624L16.6588 12.4627C16.6092 12.5045 16.574 12.5343 16.5603 12.5461L16.314 12.539C16.3351 12.5151 16.4854 12.385 16.6253 12.2638L16.6254 12.2637C16.7327 12.1708 16.8339 12.0831 16.8662 12.0525C17.0006 11.8904 17.0826 11.7 17.0976 11.4956V8.79529ZM16.3513 18.6093L15.3141 17.7562L17.0453 17.7421C17.7169 17.7421 18.202 17.305 18.3736 17.1499C19.3512 16.2545 19.3512 15.6905 19.0452 15.3803C18.9855 15.3168 18.6497 14.9925 18.6497 14.9925V13.9138C18.6497 13.9138 18.9557 14.1888 19.0004 14.2311C19.2542 14.4426 19.3959 14.7458 19.4034 15.063V16.466C19.4034 16.9736 19.2467 17.5165 18.8214 17.9184C18.3512 18.3625 17.7095 18.6093 17.0453 18.6093H16.3513ZM18.202 11.9961C18.0901 12.1089 17.9781 12.391 17.9781 12.6448V13.1735H18.5453C18.7691 13.1735 19.0602 12.9832 19.1199 12.8845V12.3557C19.202 12.4685 19.3064 12.5743 19.4258 12.6589C19.4855 12.5884 20.0079 11.9961 20.4407 11.9891C21.1645 11.982 21.0004 12.8492 20.7093 13.1242C20.6494 13.1808 20.4643 13.3422 20.2999 13.4857C20.198 13.5745 20.104 13.6565 20.0527 13.7023C19.7094 14.0125 19.1199 13.8645 19.1199 13.0678C19.1199 13.0678 18.493 13.6318 18.396 13.7094C18.299 13.7869 17.9781 14.1112 17.9781 14.1112V15.5142C17.9781 16.1669 17.7585 16.3978 17.5678 16.5983L17.5528 16.6141C17.4782 16.6916 16.6797 17.3826 16.5678 17.4601L16.3066 17.4672C16.3066 17.4672 16.7767 17.0653 16.8663 16.9736C16.9707 16.8679 17.0976 16.6564 17.0976 16.3039C17.0976 16.2122 17.0827 14.1042 17.0827 14.1042H13.4411C12.1725 14.1042 11.9038 12.7787 11.8964 12.4192V11.0867C11.8964 10.8681 11.7471 10.5015 11.5158 10.3887H11.874C11.9188 10.4028 12.1426 10.4874 12.1426 11.3052C12.1426 11.3052 12.1277 12.2499 12.1277 12.3064C12.1277 12.7223 12.4784 13.1947 12.9784 13.1947L17.0976 13.1876C17.0976 13.0819 17.2095 12.6871 17.411 12.4756C17.5229 12.3557 18.411 11.5943 18.508 11.5167H18.7691C18.7586 11.5266 18.7168 11.5623 18.6601 11.6106L18.6594 11.6111L18.6594 11.6111L18.6594 11.6112L18.6593 11.6112L18.6593 11.6112L18.6593 11.6112C18.5144 11.7345 18.2737 11.9395 18.2095 12.0102L18.202 11.9961ZM19.5527 12.7928C19.6572 12.9268 19.7765 13.0607 19.9034 13.1806C20.3511 13.519 20.5601 13.1524 20.2616 12.7717C20.1422 12.6166 19.687 12.6589 19.5527 12.7928ZM14.4634 16.0219C14.5007 15.9936 15.135 15.4931 15.135 15.3027C15.135 15.0905 15.0179 14.9844 14.7354 14.7286C14.6614 14.6616 14.5759 14.5842 14.4783 14.4919L13.7843 15.1476C14.2544 15.5988 14.4186 15.8174 14.4634 16.0219ZM11.0756 13.3075H11.4338C11.4338 13.3075 11.7024 13.3075 11.6949 14.2099V15.0983C11.6949 16.184 12.7322 16.8256 13.4933 16.8115H15.5753C16.038 16.8115 16.426 16.177 15.9335 15.8103C15.829 15.7328 15.5902 15.4931 15.5902 15.4931V14.3932C15.5902 14.3932 15.829 14.6118 15.9186 14.6964C15.9351 14.712 15.9535 14.7284 15.9732 14.7459C16.1226 14.8785 16.3439 15.0749 16.3439 15.486V16.0219C16.3439 16.5181 16.1677 16.7043 15.9908 16.8913C15.9716 16.9116 15.9524 16.9318 15.9335 16.9525L15.9238 16.9628C15.8575 17.0334 15.7033 17.1975 15.5828 17.298C15.2395 17.587 15.038 17.7139 14.4709 17.7139H13.5232C12.3889 17.7139 11.4561 16.7269 11.4561 15.6623V14.0196C11.4561 13.5049 11.0756 13.3075 11.0756 13.3075ZM13.7172 15.3098C13.7172 15.5002 13.0829 16.0007 13.0456 16.0289C13.0008 15.8245 12.8366 15.6059 12.3665 15.1547L13.0605 14.499C13.1605 14.5935 13.248 14.6722 13.3236 14.7402L13.3236 14.7403C13.598 14.9871 13.7172 15.0943 13.7172 15.3098ZM5.32212 22.6068H6.44146C7.14292 22.6068 7.31455 22.2755 7.31455 22.2755L7.30709 22.5363C7.30709 22.7337 7.12053 23.0933 6.58324 23.0933H4.2177C4.2177 23.0933 3.92668 23.0721 3.92668 22.3812L3.91175 19.6316C3.92668 18.9477 3.50879 18.6093 3.50879 18.6093H5.91164C7.14292 18.6093 7.23993 19.406 7.23993 19.406C6.73604 19.0955 6.25359 19.0956 5.63871 19.0958L5.59823 19.0958H4.85946C4.97139 19.2156 4.97139 19.6387 4.97139 19.6387V20.1251H5.48629C5.94149 20.111 6.35938 20.3507 6.5534 20.7385C6.23451 20.5698 5.90472 20.5762 5.6246 20.5816H5.62458H5.62456H5.62454H5.62452H5.6245H5.62449H5.62447H5.62445C5.57686 20.5825 5.53071 20.5834 5.48629 20.5834C5.21019 20.5834 4.96393 20.5904 4.96393 20.5904V22.0992C4.96948 22.1338 4.97355 22.1694 4.9776 22.2048C5.00078 22.4076 5.02357 22.6068 5.32212 22.6068ZM12.7396 22.3742V20.4494C12.7396 19.7021 12.0978 19.5047 11.6128 19.5047C11.0107 19.5047 10.8053 19.9557 10.7158 20.1523L10.7024 20.1815C10.5606 19.7162 10.0606 19.5047 9.65767 19.5047C8.88906 19.5047 8.69504 20.1956 8.69504 20.1956C8.69504 20.1956 8.68011 19.5259 8.06074 19.5259H7.4563C7.4563 19.5259 7.80703 19.6598 7.80703 20.2379V22.3742C7.80703 23.0792 8.10552 23.0933 8.10552 23.0933H9.10546C8.86667 22.9241 8.72488 22.6562 8.72488 22.3671V20.4706C8.73981 20.386 8.88906 20.104 9.3144 20.104C9.56066 20.104 9.8293 20.3437 9.82184 20.6116V22.3742C9.82184 23.0863 10.1203 23.0933 10.1203 23.0933H11.1203C10.8815 22.917 10.7397 22.6562 10.7397 22.3671V20.4706C10.8367 20.1956 11.1501 20.0405 11.4486 20.1322C11.6725 20.2027 11.8292 20.393 11.8367 20.6186V22.3742C11.8441 23.0933 12.1351 23.0863 12.1351 23.0863H13.1351C12.8888 22.917 12.747 22.6562 12.7396 22.3742ZM14.8664 23.0933C14.6276 22.9241 14.4858 22.6562 14.4858 22.3742L14.4783 22.3601V20.3155C14.4783 19.5188 14.0381 19.5188 13.8217 19.5188H13.2172C13.2172 19.5188 13.5605 19.6669 13.5605 20.2309V22.3812C13.5605 23.1003 13.8664 23.0933 13.8664 23.0933H14.8664ZM17.5602 19.7938C17.5602 19.7938 17.4632 19.54 17.0528 19.54C16.426 19.54 16.2767 20.245 16.2767 20.245C16.2245 19.688 16.0678 19.5259 15.6275 19.5259H15.0231C15.0231 19.5259 15.3738 19.6598 15.3738 20.238V22.3742C15.3738 23.0792 15.6723 23.0933 15.6723 23.0933H16.6722C16.4334 22.9241 16.2917 22.6562 16.2917 22.3742V20.6187C16.314 20.4706 16.4036 20.3367 16.5379 20.2591C16.8737 20.0476 17.314 20.1111 17.5752 20.4001L17.5602 19.7938ZM22.7988 20.0617C22.6197 19.97 22.4182 19.9207 22.2092 19.9207H21.9555V22.3953C21.963 22.6703 22.1048 22.9311 22.3436 23.0933H21.3511C21.3511 23.0933 21.0451 23.0933 21.0451 22.4024V19.9207L20.4108 19.9136C20.4108 19.9136 21.0078 19.6386 21.2914 19.4201C21.5526 19.2156 21.7839 18.9759 21.963 18.708V19.5258H22.7988V20.0617ZM25.2389 20.9993C24.9467 21.2864 24.6871 21.4006 24.4558 21.5023C24.244 21.5954 24.0559 21.6781 23.8882 21.8736C23.8882 21.8736 23.9479 22.4235 24.3882 22.6139C24.5375 22.6773 25.1568 22.8888 25.5523 22.2402V22.8183C25.5523 22.8183 25.2986 23.1003 24.4852 23.1003C23.5077 23.1003 22.8361 22.3741 22.8361 21.3871C22.8361 20.4142 23.3808 19.5188 24.4181 19.5117C25.4255 19.4976 25.9777 20.2732 25.2389 20.9993ZM24.627 20.7737C24.7912 20.4847 24.9255 19.7514 24.3584 19.7937C23.7017 19.8431 23.8285 21.4858 23.8285 21.4858C23.9069 21.4041 23.9999 21.3455 24.0988 21.2833C24.2729 21.1736 24.4651 21.0526 24.627 20.7737ZM14.4709 18.7997C14.4709 19.0323 14.2769 19.2297 14.0231 19.2368C13.7694 19.2368 13.5605 19.0464 13.5605 18.8067C13.5605 18.5741 13.762 18.3837 14.0082 18.3766C14.2545 18.3766 14.4634 18.56 14.4709 18.7997ZM18.5975 22.6844C18.3737 22.6844 18.2095 22.4588 18.2095 22.2332C18.2095 21.5778 18.6278 21.3369 18.9311 21.1622C19.039 21.1 19.1323 21.0463 19.1871 20.9853V22.487C19.1735 22.4969 19.16 22.5079 19.1458 22.5195C19.0588 22.5906 18.944 22.6844 18.5975 22.6844ZM19.1871 20.6398C19.1154 20.7577 18.8928 20.8472 18.6277 20.9538C18.0369 21.1913 17.2354 21.5134 17.426 22.4235C17.5379 22.9453 17.9036 23.1004 18.3662 23.1004C18.814 23.1004 19.0901 22.8818 19.202 22.6703C19.2692 23.0651 19.4856 23.0933 19.4856 23.0933H20.4855C20.2467 22.9241 20.0975 22.6632 20.0975 22.3812V20.3719C20.0975 19.8925 19.5378 19.5188 18.9408 19.5188C18.605 19.5118 18.2841 19.6034 18.008 19.7797V20.4001C18.008 20.4001 18.217 19.9066 18.7319 19.9066C19.2393 19.9066 19.2766 20.1463 19.2766 20.2661C19.2841 20.393 19.2617 20.527 19.1871 20.6398ZM26.709 22.7055C27.2165 22.7055 27.4553 22.3742 27.4478 22.1204C27.4403 21.9441 27.3359 21.7608 27.0523 21.6127C26.8732 21.5211 26.7016 21.4224 26.5374 21.3096C26.1717 21.0487 25.9852 20.7808 25.9777 20.3578C25.9628 19.8784 26.5075 19.5047 27.1045 19.5047C27.4478 19.5047 27.7836 19.6034 28.0597 19.7867V20.386C28.0597 20.386 27.8433 19.8925 27.3508 19.8925C26.8508 19.8925 26.7836 20.1322 26.7911 20.252C26.7911 20.3155 26.8881 20.5129 27.0747 20.6186C27.1274 20.6492 27.1824 20.6801 27.2386 20.7117C27.5324 20.8768 27.858 21.0599 28.0522 21.3025C28.194 21.4788 28.2761 21.6973 28.2836 21.923C28.2985 22.6068 27.6045 23.0933 26.9254 23.0933C26.5896 23.0933 26.2613 23.0087 25.9777 22.8395V22.205C25.9777 22.205 26.1867 22.7055 26.709 22.7055Z" fill="white"/>
</svg>
