<svg width="40" height="40" viewBox="0 0 40 40" fill="none" xmlns="http://www.w3.org/2000/svg">
<path fill-rule="evenodd" clip-rule="evenodd" d="M4 34V29H8.69615V30.3034H5.71301V30.7995H8.70571V32.0581H5.71638V32.6928H8.69531V34H4ZM11.0409 34L9.3582 29H11.1516L12.0488 32.017L12.9938 29H14.7987L13.0478 34H11.0409ZM16.5404 32.1758H17.5686L17.0625 30.541L16.5404 32.1758ZM14.1401 34L16.0057 29H18.1413L19.9501 34H18.1222L17.9022 33.292H16.1925L15.9658 34H14.1401ZM23.6937 32.1758H24.7216L24.2155 30.541L23.6937 32.1758ZM21.2936 34L23.1589 29H25.2946L27.1034 34H25.2754L25.0554 33.292H23.3458L23.119 34H21.2936ZM28.2423 34V29H29.9879V34H28.2423ZM32.6142 31.1059H33.6845C33.8337 31.1046 33.9695 31.0498 34.0698 30.9502C34.1707 30.8498 34.2184 30.7221 34.2063 30.5869C34.1954 30.4657 34.1372 30.3582 34.0383 30.276C33.9326 30.1916 33.8084 30.1482 33.682 30.1518H32.6139V31.1059H32.6142V31.1059ZM32.6032 34H30.8975V29H34.2142C34.5936 28.9986 34.9398 29.0863 35.2635 29.266C35.6257 29.4612 35.8617 29.783 35.9194 30.162C35.9952 30.6006 35.8469 31.0306 35.5094 31.3518C35.3534 31.5017 35.1674 31.6 34.9474 31.6486C35.3321 31.7321 35.628 32.0036 35.7156 32.3535C35.7451 32.4792 35.7645 32.5949 35.7755 32.7226C35.805 33.0718 35.8353 33.3885 35.8727 33.7364C35.8831 33.8367 35.9255 33.9257 36 34H34.2892C34.2176 33.9039 34.1709 33.784 34.1552 33.6556C34.1161 33.3466 34.0839 33.0364 34.0585 32.7254C34.0476 32.5963 33.9872 32.4812 33.8835 32.3922C33.7792 32.3032 33.6497 32.2553 33.5069 32.2532L32.6029 32.2519V34H32.6032V34Z" fill="#409E54"/>
<g clip-path="url(#clip0_2640_15558)">
<path fill-rule="evenodd" clip-rule="evenodd" d="M34.5114 6.04102H35.9999L28.1608 26.0001H26.5469C28.9465 19.2693 31.6029 12.6124 34.5114 6.04102V6.04102Z" fill="#D06537"/>
<path fill-rule="evenodd" clip-rule="evenodd" d="M19.959 11.3345L20.5963 13.7934L21.9787 13.0452L22.0763 13.1086L21.5332 14.4271L23.8066 14.8429L23.7952 15.1024L21.5451 15.5389L22.3158 17.0434L22.0939 17.1742L20.5753 16.4943L19.959 19.3013H19.8251L19.1901 16.4943L17.7413 17.2043L17.5682 17.0434L18.3286 15.5489L15.8573 15.1024L15.8164 14.853L18.3111 14.4482L17.7294 13.1599L17.8259 13.0824L19.261 13.7934L19.8251 11.3345H19.959V11.3345Z" fill="#409E54"/>
<path fill-rule="evenodd" clip-rule="evenodd" d="M12.085 17.9314L21.1776 7.78613L22.6116 8.3609C23.1161 8.50573 23.5605 8.6772 24.0247 8.9055C25.291 9.54469 26.3413 10.4723 27.0669 11.5923C27.2485 11.8638 27.3938 12.1208 27.5288 12.412C27.6775 12.7318 27.7938 13.0295 27.8977 13.3624C28.8794 16.555 27.2706 19.9845 24.0241 21.6188C23.5718 21.8406 23.1428 22.0146 22.6576 22.171C20.819 22.7729 18.9134 22.7729 17.0748 22.171C16.6034 22.0202 16.1468 21.8355 15.7094 21.6188C14.4162 20.9571 13.4174 20.0761 12.6661 18.9326C12.4502 18.6093 12.2561 18.275 12.085 17.9314V17.9314ZM14.213 18.1984L13.0224 18.1974C13.1064 18.3528 13.191 18.491 13.2908 18.6394C13.6275 19.1609 14.0442 19.6385 14.5291 20.0585L14.6931 20.1957L14.7754 20.2626H16.3603C15.8275 19.6377 15.4127 18.9402 15.1323 18.1974L14.213 18.1984ZM13.8078 17.952L15.0472 17.9625C14.7723 17.1774 14.6183 16.3629 14.5892 15.5413L12.7359 17.613C12.7915 17.7337 12.8431 17.8439 12.9021 17.9635L13.8078 17.952V17.952ZM16.072 15.3451L14.7254 15.3698C14.7532 16.2659 14.9019 17.078 15.1942 17.9364L17.5151 17.9198C17.3705 17.067 17.296 16.206 17.2921 15.3436L16.072 15.3451ZM15.8138 20.4693H15.0648C15.4064 20.7227 15.7406 20.9269 16.1288 21.1205C16.6654 21.425 17.2495 21.6579 17.8624 21.8119C18.2767 21.9276 18.6569 22.0221 19.0785 22.1127L17.7217 21.4715C17.5668 21.4062 17.4201 21.3265 17.2842 21.2337C17.131 21.1296 17.0004 21.0235 16.8699 20.8977C16.7293 20.7637 16.6003 20.6205 16.484 20.4693H15.8138V20.4693ZM17.1026 20.2098L18.1621 20.2189C18.0248 19.8975 17.9091 19.5692 17.8153 19.2358C17.713 18.879 17.6272 18.5187 17.5583 18.1556L15.2617 18.1813C15.4782 18.7009 15.7499 19.2012 16.0732 19.6753C16.202 19.8754 16.3314 20.0514 16.4869 20.236L17.1026 20.2098V20.2098ZM19.7924 20.4562H18.3902C18.4997 20.7157 18.6183 20.9455 18.7693 21.1889C18.9299 21.4197 19.1063 21.6133 19.3254 21.8029C19.4241 21.8864 19.5195 21.9553 19.6313 22.0236C19.6823 22.0543 19.7323 22.0785 19.7896 22.0981L19.7924 20.4562V20.4562ZM19.3628 21.9346C19.2151 21.8121 19.0797 21.6783 18.9582 21.5349C18.8225 21.3776 18.6996 21.2119 18.5905 21.039C18.47 20.8501 18.3624 20.655 18.2682 20.4547L16.6299 20.4773C16.8183 20.6815 17.0067 20.8545 17.232 21.0265C17.4357 21.1829 17.6377 21.3076 17.8738 21.4212L19.2726 22.091C19.3946 22.1272 19.5155 22.1353 19.6403 22.1127C19.5393 22.0645 19.446 22.0047 19.3628 21.9346V21.9346ZM19.9422 10.0586H21.3445C21.2394 9.80627 21.1131 9.56135 20.9665 9.3259C20.8908 9.19945 20.8041 9.0784 20.7072 8.96384C20.6691 8.91694 20.6245 8.87453 20.5744 8.83762L19.9405 9.5547L19.9422 10.0586ZM19.9547 22.082C20.0847 22.0201 20.1953 21.9522 20.3071 21.8678C20.4314 21.7742 20.5352 21.6812 20.6397 21.5701C20.9374 21.2469 21.172 20.8818 21.3337 20.4899H19.9428L19.9547 22.082V22.082ZM20.1108 22.0996C20.2271 22.1222 20.3389 22.1192 20.4541 22.0905C20.5137 22.0769 20.567 22.0583 20.6226 22.0317L21.896 21.4122C22.2037 21.2703 22.4858 21.0886 22.7331 20.8731C22.8717 20.7548 23.002 20.6292 23.1235 20.497L21.4546 20.4909C21.3428 20.7318 21.2242 20.9445 21.0755 21.1698C20.948 21.367 20.8008 21.5536 20.6357 21.7275C20.5361 21.8337 20.4208 21.9276 20.2929 22.0065C20.2328 22.0428 20.176 22.0719 20.1108 22.0996V22.0996ZM20.7736 8.91858C21.0539 9.28969 21.2713 9.64873 21.4676 10.0596L23.1059 10.0374C22.9245 9.83855 22.723 9.65475 22.5038 9.48832C22.3073 9.33594 22.092 9.20369 21.862 9.09407L20.7969 8.58367L20.6272 8.76973C20.6851 8.81499 20.7316 8.86226 20.7736 8.91858V8.91858ZM21.2576 21.9658C22.0931 21.8098 22.893 21.5305 23.624 21.1396C24.0279 20.9376 24.4098 20.7027 24.7646 20.4381L23.2705 20.4884C23.0428 20.7704 22.772 21.0229 22.4658 21.2387C22.3296 21.3337 22.1841 21.4178 22.0311 21.4901L20.8332 22.0498C20.9818 22.0327 21.1146 22.006 21.2576 21.9658V21.9658ZM22.6321 10.305L21.5726 10.2954C21.7133 10.6273 21.8228 10.935 21.9205 11.279C22.0249 11.6471 22.1043 11.985 22.1764 12.3597L24.473 12.334C24.2564 11.8146 23.9846 11.3145 23.6615 10.8405C23.537 10.646 23.3988 10.4585 23.2478 10.2793L22.6321 10.305V10.305ZM23.4135 18.1758L22.1645 18.1903C22.0499 18.8963 21.8478 19.5889 21.5618 20.2556H22.3387L23.254 20.2259C23.7928 19.6113 24.2046 18.9171 24.4701 18.1752H23.4135V18.1758ZM23.283 17.956L24.5598 17.9324C24.8458 17.078 24.9854 16.2684 25.0018 15.3778L22.4306 15.3798C22.4273 16.2422 22.3528 17.1033 22.2076 17.956H23.283V17.956ZM23.9214 10.0455H24.6704C24.3399 9.79901 23.9836 9.58096 23.6064 9.39428C23.0699 9.08969 22.4858 8.85656 21.8728 8.70235C21.5497 8.61143 21.2232 8.53042 20.8939 8.45947L20.8587 8.50271L22.0135 9.04379C22.173 9.11117 22.3103 9.1861 22.451 9.28164C22.6043 9.38573 22.7348 9.49133 22.8653 9.61705C23.0106 9.75584 23.1314 9.8896 23.2523 10.0455H23.9214V10.0455ZM24.0808 20.247H24.9831L25.1483 20.1123L25.2294 20.0424C25.711 19.6198 26.1273 19.1426 26.4676 18.6233C26.5675 18.475 26.6515 18.3377 26.7372 18.1813H24.6279C24.3559 18.9273 23.9404 19.626 23.3999 20.2465H24.0808V20.247V20.247ZM25.9274 12.5623L24.688 12.5512C24.9848 13.4121 25.1312 14.2288 25.1488 15.1289L27.484 15.1284C27.464 14.2393 27.2424 13.3629 26.8325 12.5512L25.9274 12.5623V12.5623ZM25.5217 12.3159L26.7122 12.3169C26.6307 12.166 26.5412 12.0187 26.4438 11.8754C26.1073 11.3538 25.6906 10.8762 25.2056 10.4563L25.0416 10.3185L24.9593 10.2522H23.3755C23.9074 10.8773 24.3217 11.5745 24.6023 12.3169L25.5217 12.3159V12.3159ZM25.6471 17.948H26.8564C27.0158 17.6211 27.1378 17.3143 27.2456 16.9719C27.4085 16.4338 27.4919 15.928 27.5084 15.3708H25.1732C25.1634 16.2454 25.0082 17.114 24.7124 17.9485H25.6471V17.948V17.948ZM22.4249 14.5386L22.2133 14.4998C22.1821 13.8631 22.1099 13.2285 21.9971 12.599L20.2725 12.5985L20.2095 12.3491L21.984 12.3581L21.8909 11.8593C21.793 11.374 21.6586 10.8951 21.4886 10.4257L21.4477 10.3155L21.4398 10.2939H19.9422L19.9411 11.3217L19.9297 11.278H19.797L19.7924 11.3001V10.2577L19.2925 10.2612L17.8448 11.8734C17.8136 12.0278 17.7881 12.1681 17.7626 12.3229L19.5558 12.3245L19.4951 12.5819L17.716 12.5829C17.6159 13.2225 17.5545 13.8665 17.5322 14.5119L17.3182 14.5461C17.3472 13.8592 17.4124 13.2366 17.5265 12.5568L17.2916 12.5573L14.9774 15.142L16.3206 15.1339L17.5032 15.3492C17.5056 15.8625 17.5343 16.3754 17.5895 16.8864L17.5384 16.9865L17.6093 17.0524C17.6445 17.349 17.6848 17.6191 17.737 17.9138L19.4951 17.9148L19.5507 18.1642L17.7506 18.1541L17.8448 18.653C17.9459 19.1528 18.0718 19.6029 18.2461 20.0871L18.2869 20.1973L18.2949 20.2189L19.7924 20.2179L19.7936 19.2287L19.797 19.2443H19.9297L19.9417 19.192V20.2536H21.4279C21.6827 19.5591 21.8535 18.9099 21.971 18.1883L20.1618 18.1863L20.2197 17.9288L22.0175 17.9278C22.0629 17.6372 22.0975 17.3722 22.1282 17.079L22.2853 16.9855L22.1577 16.733C22.194 16.2724 22.211 15.8525 22.2087 15.3909L21.9658 15.3929L23.1297 15.1676L23.6626 15.1671L25.0081 15.143C24.9848 14.2725 24.8271 13.409 24.5394 12.5764L22.2184 12.593C22.3319 13.2593 22.396 13.8677 22.4249 14.5386V14.5386Z" fill="#D06537"/>
<path fill-rule="evenodd" clip-rule="evenodd" d="M23.3583 6.00013L33.5961 6.00365L25.921 25.6414C25.8791 25.7478 25.8002 25.8398 25.6958 25.9042C25.5913 25.9686 25.4666 26.0021 25.3394 25.9999H5L22.3857 6.4175C22.4997 6.28545 22.6471 6.17891 22.816 6.10643C22.9849 6.03395 23.1707 5.99754 23.3583 6.00013ZM12.2568 18.0995L21.3495 7.95425L22.6637 8.34698C23.1682 8.49231 23.6125 8.66328 24.0756 8.89158C25.3689 9.55384 26.3676 10.4349 27.119 11.5784C27.3005 11.8499 27.4447 12.1069 27.5809 12.398C27.7296 12.7178 27.8447 13.0155 27.9497 13.3489C28.9309 16.5421 27.3227 19.9706 24.075 21.6059C23.6373 21.822 23.1807 22.0066 22.7097 22.158C20.8711 22.759 18.9655 22.759 17.1269 22.158C16.6554 22.0069 16.1984 21.8222 15.7604 21.6059C14.4683 20.9441 13.4695 20.0621 12.7171 18.9186C12.5415 18.6558 12.3877 18.382 12.2568 18.0995V18.0995Z" fill="#409E54"/>
</g>
<defs>
<clipPath id="clip0_2640_15558">
<rect width="31" height="20" fill="white" transform="translate(5 6)"/>
</clipPath>
</defs>
</svg>
